<?xml version="1.0" encoding="UTF-8" standalone="no"?>
<!DOCTYPE svg PUBLIC "-//W3C//DTD SVG 1.1//EN"
 "http://www.w3.org/Graphics/SVG/1.1/DTD/svg11.dtd">
<!-- Generated by graphviz version 2.47.0 (0)
 -->
<!-- Title: orbiskdataapi UML diagram Pages: 1 -->
<svg width="1091pt" height="1261pt"
 viewBox="0.00 0.00 1091.46 1261.00" xmlns="http://www.w3.org/2000/svg" xmlns:xlink="http://www.w3.org/1999/xlink">
<g id="graph0" class="graph" transform="scale(1 1) rotate(0) translate(4 1257)">
<title>orbiskdataapi UML diagram</title>
<polygon fill="white" stroke="transparent" points="-4,4 -4,-1257 1087.46,-1257 1087.46,4 -4,4"/>
<!-- 0 -->
<g id="node1" class="node">
<title>0</title>
<polygon fill="none" stroke="black" points="521.46,-0.5 521.46,-70.5 621.46,-70.5 621.46,-0.5 521.46,-0.5"/>
<text text-anchor="middle" x="571.46" y="-55.3" font-family="Times,serif" font-size="14.00">DataLoader</text>
<polyline fill="none" stroke="black" points="521.46,-47.5 621.46,-47.5 "/>
<polyline fill="none" stroke="black" points="521.46,-23.5 621.46,-23.5 "/>
<text text-anchor="middle" x="571.46" y="-8.3" font-family="Times,serif" font-size="14.00"> </text>
</g>
<!-- 2 -->
<g id="node3" class="node">
<title>2</title>
<polygon fill="none" stroke="black" points="599.46,-108.5 599.46,-178.5 847.46,-178.5 847.46,-108.5 599.46,-108.5"/>
<text text-anchor="middle" x="723.46" y="-163.3" font-family="Times,serif" font-size="14.00">IngredientLoader</text>
<polyline fill="none" stroke="black" points="599.46,-155.5 847.46,-155.5 "/>
<polyline fill="none" stroke="black" points="599.46,-131.5 847.46,-131.5 "/>
<text text-anchor="start" x="607.46" y="-116.3" font-family="Times,serif" font-size="14.00">create_ingredient(ingredient_id)</text>
</g>
<!-- 0&#45;&gt;2 -->
<g id="edge1" class="edge">
<title>0&#45;&gt;2</title>
<path fill="none" stroke="black" d="M620.4,-70.62C635.04,-80.84 651.23,-92.12 666.35,-102.67"/>
<polygon fill="none" stroke="black" points="664.42,-105.59 674.63,-108.44 668.43,-99.85 664.42,-105.59"/>
</g>
<!-- 4 -->
<g id="node5" class="node">
<title>4</title>
<polygon fill="none" stroke="black" points="111.96,-197.5 111.96,-267.5 312.96,-267.5 312.96,-197.5 111.96,-197.5"/>
<text text-anchor="middle" x="212.46" y="-252.3" font-family="Times,serif" font-size="14.00">PictureLoader</text>
<polyline fill="none" stroke="black" points="111.96,-244.5 312.96,-244.5 "/>
<polyline fill="none" stroke="black" points="111.96,-220.5 312.96,-220.5 "/>
<text text-anchor="start" x="119.96" y="-205.3" font-family="Times,serif" font-size="14.00">create_picture(picture_id)</text>
</g>
<!-- 0&#45;&gt;4 -->
<g id="edge2" class="edge">
<title>0&#45;&gt;4</title>
<path fill="none" stroke="black" d="M521.32,-44.15C471.22,-53.46 393.36,-72.51 334.46,-108 299.34,-129.16 267.09,-162.72 244.58,-189.52"/>
<polygon fill="none" stroke="black" points="241.87,-187.3 238.2,-197.23 247.27,-191.75 241.87,-187.3"/>
</g>
<!-- 8 -->
<g id="node9" class="node">
<title>8</title>
<polygon fill="none" stroke="black" points="415.46,-449 415.46,-534 727.46,-534 727.46,-449 415.46,-449"/>
<text text-anchor="middle" x="571.46" y="-518.8" font-family="Times,serif" font-size="14.00">PolygonLoader</text>
<polyline fill="none" stroke="black" points="415.46,-511 727.46,-511 "/>
<polyline fill="none" stroke="black" points="415.46,-487 727.46,-487 "/>
<text text-anchor="start" x="423.46" y="-471.8" font-family="Times,serif" font-size="14.00">create_polygon(polygon_id)</text>
<text text-anchor="start" x="423.46" y="-456.8" font-family="Times,serif" font-size="14.00">create_polygons_from_picture(picture_id)</text>
</g>
<!-- 0&#45;&gt;8 -->
<g id="edge3" class="edge">
<title>0&#45;&gt;8</title>
<path fill="none" stroke="black" d="M571.46,-70.62C571.46,-149.53 571.46,-345.02 571.46,-438.76"/>
<polygon fill="none" stroke="black" points="567.97,-438.86 571.46,-448.86 574.97,-438.86 567.97,-438.86"/>
</g>
<!-- 11 -->
<g id="node12" class="node">
<title>11</title>
<polygon fill="none" stroke="black" points="343.96,-108.5 343.96,-178.5 522.96,-178.5 522.96,-108.5 343.96,-108.5"/>
<text text-anchor="middle" x="433.46" y="-163.3" font-family="Times,serif" font-size="14.00">ClientLoader</text>
<polyline fill="none" stroke="black" points="343.96,-155.5 522.96,-155.5 "/>
<polyline fill="none" stroke="black" points="343.96,-131.5 522.96,-131.5 "/>
<text text-anchor="start" x="351.96" y="-116.3" font-family="Times,serif" font-size="14.00">create_client(client_id)</text>
</g>
<!-- 0&#45;&gt;11 -->
<g id="edge4" class="edge">
<title>0&#45;&gt;11</title>
<path fill="none" stroke="black" d="M527.04,-70.62C513.99,-80.65 499.59,-91.71 486.08,-102.08"/>
<polygon fill="none" stroke="black" points="483.6,-99.57 477.81,-108.44 487.87,-105.13 483.6,-99.57"/>
</g>
<!-- 13 -->
<g id="node14" class="node">
<title>13</title>
<polygon fill="none" stroke="black" points="865.46,-108.5 865.46,-178.5 1083.46,-178.5 1083.46,-108.5 865.46,-108.5"/>
<text text-anchor="middle" x="974.46" y="-163.3" font-family="Times,serif" font-size="14.00">MetadataLoader</text>
<polyline fill="none" stroke="black" points="865.46,-155.5 1083.46,-155.5 "/>
<polyline fill="none" stroke="black" points="865.46,-131.5 1083.46,-131.5 "/>
<text text-anchor="start" x="873.46" y="-116.3" font-family="Times,serif" font-size="14.00">create_metadata(picture_id)</text>
</g>
<!-- 0&#45;&gt;13 -->
<g id="edge5" class="edge">
<title>0&#45;&gt;13</title>
<path fill="none" stroke="black" d="M621.56,-48.45C676.53,-61.7 767.62,-84.06 855.36,-107.73"/>
<polygon fill="none" stroke="black" points="854.65,-111.16 865.22,-110.4 856.48,-104.41 854.65,-111.16"/>
</g>
<!-- 1 -->
<g id="node2" class="node">
<title>1</title>
<polygon fill="none" stroke="black" points="732.96,-434.5 732.96,-548.5 843.96,-548.5 843.96,-434.5 732.96,-434.5"/>
<text text-anchor="middle" x="788.46" y="-533.3" font-family="Times,serif" font-size="14.00">Ingredient</text>
<polyline fill="none" stroke="black" points="732.96,-525.5 843.96,-525.5 "/>
<text text-anchor="start" x="740.96" y="-510.3" font-family="Times,serif" font-size="14.00">category</text>
<text text-anchor="start" x="740.96" y="-495.3" font-family="Times,serif" font-size="14.00">ingredient_id</text>
<text text-anchor="start" x="740.96" y="-480.3" font-family="Times,serif" font-size="14.00">label</text>
<text text-anchor="start" x="740.96" y="-465.3" font-family="Times,serif" font-size="14.00">name</text>
<polyline fill="none" stroke="black" points="732.96,-457.5 843.96,-457.5 "/>
<text text-anchor="middle" x="788.46" y="-442.3" font-family="Times,serif" font-size="14.00"> </text>
</g>
<!-- 7 -->
<g id="node8" class="node">
<title>7</title>
<polygon fill="none" stroke="black" points="514.96,-808.5 514.96,-997.5 625.96,-997.5 625.96,-808.5 514.96,-808.5"/>
<text text-anchor="middle" x="570.46" y="-982.3" font-family="Times,serif" font-size="14.00">Polygon</text>
<polyline fill="none" stroke="black" points="514.96,-974.5 625.96,-974.5 "/>
<text text-anchor="start" x="522.96" y="-959.3" font-family="Times,serif" font-size="14.00">area</text>
<text text-anchor="start" x="522.96" y="-944.3" font-family="Times,serif" font-size="14.00">client_id</text>
<text text-anchor="start" x="522.96" y="-929.3" font-family="Times,serif" font-size="14.00">config_dict</text>
<text text-anchor="start" x="522.96" y="-914.3" font-family="Times,serif" font-size="14.00">coordinates</text>
<text text-anchor="start" x="522.96" y="-899.3" font-family="Times,serif" font-size="14.00">img_id</text>
<text text-anchor="start" x="522.96" y="-884.3" font-family="Times,serif" font-size="14.00">ingredient</text>
<text text-anchor="start" x="522.96" y="-869.3" font-family="Times,serif" font-size="14.00">ingredient_id</text>
<text text-anchor="start" x="522.96" y="-854.3" font-family="Times,serif" font-size="14.00">polygon_id</text>
<text text-anchor="start" x="522.96" y="-839.3" font-family="Times,serif" font-size="14.00">weight</text>
<polyline fill="none" stroke="black" points="514.96,-831.5 625.96,-831.5 "/>
<text text-anchor="middle" x="570.46" y="-816.3" font-family="Times,serif" font-size="14.00"> </text>
</g>
<!-- 1&#45;&gt;7 -->
<g id="edge12" class="edge">
<title>1&#45;&gt;7</title>
<path fill="none" stroke="black" d="M766.6,-548.6C744.58,-603.11 708.37,-687.6 669.46,-757 658.47,-776.61 645.6,-796.95 632.84,-815.98"/>
<polygon fill="none" stroke="black" points="632.71,-816.17 632.66,-823.38 625.98,-826.1 626.04,-818.89 632.71,-816.17"/>
<text text-anchor="middle" x="795.96" y="-658.3" font-family="Times,serif" font-size="14.00">ingredient</text>
<text text-anchor="middle" x="647.48" y="-814.9" font-family="Times,serif" font-size="14.00"> &#160;&#160;&#160;0..*</text>
<text text-anchor="middle" x="761.6" y="-552.4" font-family="Times,serif" font-size="14.00">1</text>
</g>
<!-- 2&#45;&gt;1 -->
<g id="edge6" class="edge">
<title>2&#45;&gt;1</title>
<path fill="none" stroke="black" stroke-dasharray="5,2" d="M729.88,-178.62C740.57,-235.53 762.22,-350.8 776,-424.14"/>
<polygon fill="black" stroke="black" points="777.89,-434.2 771.62,-425.2 776.97,-429.29 776.04,-424.37 776.04,-424.37 776.04,-424.37 776.97,-429.29 780.46,-423.54 777.89,-434.2 777.89,-434.2"/>
<text text-anchor="middle" x="793.46" y="-228.8" font-family="Times,serif" font-size="14.00">&lt;&lt;create&gt;&gt;</text>
</g>
<!-- 3 -->
<g id="node4" class="node">
<title>3</title>
<polygon fill="none" stroke="black" points="263.96,-567.5 263.96,-756.5 406.96,-756.5 406.96,-567.5 263.96,-567.5"/>
<text text-anchor="middle" x="335.46" y="-741.3" font-family="Times,serif" font-size="14.00">Picture</text>
<polyline fill="none" stroke="black" points="263.96,-733.5 406.96,-733.5 "/>
<text text-anchor="start" x="271.96" y="-718.3" font-family="Times,serif" font-size="14.00">config_dict</text>
<text text-anchor="start" x="271.96" y="-703.3" font-family="Times,serif" font-size="14.00">is_discard</text>
<text text-anchor="start" x="271.96" y="-688.3" font-family="Times,serif" font-size="14.00">picture_id</text>
<text text-anchor="start" x="271.96" y="-673.3" font-family="Times,serif" font-size="14.00">client</text>
<text text-anchor="start" x="271.96" y="-658.3" font-family="Times,serif" font-size="14.00">distance</text>
<text text-anchor="start" x="271.96" y="-643.3" font-family="Times,serif" font-size="14.00">state</text>
<text text-anchor="start" x="271.96" y="-628.3" font-family="Times,serif" font-size="14.00">time_capture</text>
<text text-anchor="start" x="271.96" y="-613.3" font-family="Times,serif" font-size="14.00">time_sync</text>
<text text-anchor="start" x="271.96" y="-598.3" font-family="Times,serif" font-size="14.00">weight</text>
<polyline fill="none" stroke="black" points="263.96,-590.5 406.96,-590.5 "/>
<text text-anchor="start" x="271.96" y="-575.3" font-family="Times,serif" font-size="14.00">create_polygons()</text>
</g>
<!-- 5 -->
<g id="node6" class="node">
<title>5</title>
<polygon fill="none" stroke="black" points="330.96,-1049.5 330.96,-1164.5 665.96,-1164.5 665.96,-1049.5 330.96,-1049.5"/>
<text text-anchor="middle" x="498.46" y="-1149.3" font-family="Times,serif" font-size="14.00">PictureRenderer</text>
<polyline fill="none" stroke="black" points="330.96,-1141.5 665.96,-1141.5 "/>
<polyline fill="none" stroke="black" points="330.96,-1117.5 665.96,-1117.5 "/>
<text text-anchor="start" x="338.96" y="-1102.3" font-family="Times,serif" font-size="14.00">pic_weight_render(picid_weight, interactive)</text>
<text text-anchor="start" x="338.96" y="-1087.3" font-family="Times,serif" font-size="14.00">render()</text>
<text text-anchor="start" x="338.96" y="-1072.3" font-family="Times,serif" font-size="14.00">render_as_array()</text>
<text text-anchor="start" x="338.96" y="-1057.3" font-family="Times,serif" font-size="14.00">render_with_polygons()</text>
</g>
<!-- 3&#45;&gt;5 -->
<g id="edge15" class="edge">
<title>3&#45;&gt;5</title>
<path fill="none" stroke="black" stroke-dasharray="5,2" d="M389.39,-756.68C392,-762.79 394.39,-768.92 396.46,-775 428.94,-870 397.63,-903.84 432.46,-998 437.78,-1012.37 445.1,-1026.92 452.93,-1040.5"/>
<polygon fill="black" stroke="black" points="458.14,-1049.26 449.16,-1042.96 455.58,-1044.96 453.03,-1040.66 453.03,-1040.66 453.03,-1040.66 455.58,-1044.96 456.9,-1038.37 458.14,-1049.26 458.14,-1049.26"/>
<text text-anchor="middle" x="468.96" y="-899.3" font-family="Times,serif" font-size="14.00">&lt;&lt;use&gt;&gt;</text>
</g>
<!-- 6 -->
<g id="node7" class="node">
<title>6</title>
<polygon fill="none" stroke="black" points="58.46,-853 58.46,-953 378.46,-953 378.46,-853 58.46,-853"/>
<text text-anchor="middle" x="218.46" y="-937.8" font-family="Times,serif" font-size="14.00">PictureSurroundings</text>
<polyline fill="none" stroke="black" points="58.46,-930 378.46,-930 "/>
<polyline fill="none" stroke="black" points="58.46,-906 378.46,-906 "/>
<text text-anchor="start" x="66.46" y="-890.8" font-family="Times,serif" font-size="14.00">get_surround_pictures(n_pictures)</text>
<text text-anchor="start" x="66.46" y="-875.8" font-family="Times,serif" font-size="14.00">get_surround_pictures_collage(n_pictures)</text>
<text text-anchor="start" x="66.46" y="-860.8" font-family="Times,serif" font-size="14.00">plot_weight_around_picture(tminus, tplus)</text>
</g>
<!-- 3&#45;&gt;6 -->
<g id="edge16" class="edge">
<title>3&#45;&gt;6</title>
<path fill="none" stroke="black" stroke-dasharray="5,2" d="M325.12,-756.67C322.16,-768.18 318.35,-779.56 313.46,-790 304.32,-809.55 290.84,-828.42 276.88,-844.91"/>
<polygon fill="black" stroke="black" points="270.01,-852.82 273.18,-842.32 273.29,-849.04 276.57,-845.27 276.57,-845.27 276.57,-845.27 273.29,-849.04 279.97,-848.22 270.01,-852.82 270.01,-852.82"/>
<text text-anchor="middle" x="355.96" y="-778.8" font-family="Times,serif" font-size="14.00">&lt;&lt;use&gt;&gt;</text>
</g>
<!-- 3&#45;&gt;7 -->
<g id="edge13" class="edge">
<title>3&#45;&gt;7</title>
<path fill="none" stroke="black" stroke-dasharray="5,2" d="M407.14,-743.15C424.28,-759.83 443.22,-776.44 462.46,-790 477.74,-800.77 486.01,-796.15 500.46,-808 502.75,-809.87 505,-811.84 507.22,-813.88"/>
<polygon fill="black" stroke="black" points="514.6,-821.07 504.3,-817.31 511.02,-817.58 507.44,-814.09 507.44,-814.09 507.44,-814.09 511.02,-817.58 510.58,-810.87 514.6,-821.07 514.6,-821.07"/>
<text text-anchor="middle" x="509.46" y="-778.8" font-family="Times,serif" font-size="14.00">&lt;&lt;create&gt;&gt;</text>
</g>
<!-- 4&#45;&gt;3 -->
<g id="edge7" class="edge">
<title>4&#45;&gt;3</title>
<path fill="none" stroke="black" stroke-dasharray="5,2" d="M120.52,-267.86C114.28,-273.1 108.78,-279.11 104.46,-286 73.82,-334.98 83.14,-362.3 104.46,-416 134.9,-492.64 201.93,-559.21 255.99,-603.54"/>
<polygon fill="black" stroke="black" points="263.86,-609.91 253.26,-607.12 259.98,-606.77 256.09,-603.62 256.09,-603.62 256.09,-603.62 259.98,-606.77 258.92,-600.12 263.86,-609.91 263.86,-609.91"/>
<text text-anchor="middle" x="151.46" y="-347.3" font-family="Times,serif" font-size="14.00">&lt;&lt;create&gt;&gt;</text>
</g>
<!-- 14 -->
<g id="node15" class="node">
<title>14</title>
<polygon fill="none" stroke="black" points="342.46,-1216.5 342.46,-1252.5 480.46,-1252.5 480.46,-1216.5 342.46,-1216.5"/>
<text text-anchor="middle" x="411.46" y="-1230.8" font-family="Times,serif" font-size="14.00">PIL.Image.Image</text>
</g>
<!-- 5&#45;&gt;14 -->
<g id="edge19" class="edge">
<title>5&#45;&gt;14</title>
<path fill="none" stroke="black" stroke-dasharray="5,2" d="M423.77,-1164.65C419.35,-1170.41 415.48,-1176.54 412.46,-1183 409.15,-1190.1 408.03,-1198.4 407.97,-1206.19"/>
<polygon fill="black" stroke="black" points="408.45,-1216.35 403.48,-1206.57 408.21,-1211.35 407.98,-1206.36 407.98,-1206.36 407.98,-1206.36 408.21,-1211.35 412.47,-1206.15 408.45,-1216.35 408.45,-1216.35"/>
<text text-anchor="middle" x="459.46" y="-1186.8" font-family="Times,serif" font-size="14.00">&lt;&lt;create&gt;&gt;</text>
</g>
<!-- 15 -->
<g id="node16" class="node">
<title>15</title>
<polygon fill="none" stroke="black" points="599.46,-1216.5 599.46,-1252.5 723.46,-1252.5 723.46,-1216.5 599.46,-1216.5"/>
<text text-anchor="middle" x="661.46" y="-1230.8" font-family="Times,serif" font-size="14.00">numpy.ndarray</text>
</g>
<!-- 5&#45;&gt;15 -->
<g id="edge20" class="edge">
<title>5&#45;&gt;15</title>
<path fill="none" stroke="black" stroke-dasharray="5,2" d="M508.74,-1164.8C513.31,-1177.11 519.92,-1189.09 529.46,-1198 545.79,-1213.23 567.94,-1222.07 589.44,-1227.14"/>
<polygon fill="black" stroke="black" points="599.25,-1229.22 588.53,-1231.55 594.36,-1228.18 589.46,-1227.15 589.46,-1227.15 589.46,-1227.15 594.36,-1228.18 590.4,-1222.75 599.25,-1229.22 599.25,-1229.22"/>
<text text-anchor="middle" x="576.46" y="-1186.8" font-family="Times,serif" font-size="14.00">&lt;&lt;create&gt;&gt;</text>
</g>
<!-- 6&#45;&gt;3 -->
<g id="edge21" class="edge">
<title>6&#45;&gt;3</title>
<path fill="none" stroke="black" stroke-dasharray="5,2" d="M207.86,-852.8C204.92,-828.45 204.96,-799.17 215.46,-775 224.53,-754.15 239.59,-735.42 256.05,-719.51"/>
<polygon fill="black" stroke="black" points="263.68,-712.4 259.43,-722.5 260.02,-715.8 256.36,-719.21 256.36,-719.21 256.36,-719.21 260.02,-715.8 253.3,-715.91 263.68,-712.4 263.68,-712.4"/>
<text text-anchor="middle" x="262.46" y="-778.8" font-family="Times,serif" font-size="14.00">&lt;&lt;create&gt;&gt;</text>
</g>
<!-- 6&#45;&gt;14 -->
<g id="edge22" class="edge">
<title>6&#45;&gt;14</title>
<path fill="none" stroke="black" stroke-dasharray="5,2" d="M116.52,-953.14C79.57,-976.61 41.92,-1008.54 21.46,-1049 -1.8,-1095.01 -11.69,-1125.52 21.46,-1165 60.34,-1211.3 229.91,-1226.31 332.22,-1231.18"/>
<polygon fill="black" stroke="black" points="342.21,-1231.63 332.02,-1235.67 337.22,-1231.4 332.22,-1231.18 332.22,-1231.18 332.22,-1231.18 337.22,-1231.4 332.42,-1226.68 342.21,-1231.63 342.21,-1231.63"/>
<text text-anchor="middle" x="68.46" y="-1103.3" font-family="Times,serif" font-size="14.00">&lt;&lt;create&gt;&gt;</text>
</g>
<!-- 16 -->
<g id="node17" class="node">
<title>16</title>
<polygon fill="none" stroke="black" points="124.46,-1089 124.46,-1125 312.46,-1125 312.46,-1089 124.46,-1089"/>
<text text-anchor="middle" x="218.46" y="-1103.3" font-family="Times,serif" font-size="14.00">matplotlib.figure.Figure</text>
</g>
<!-- 6&#45;&gt;16 -->
<g id="edge23" class="edge">
<title>6&#45;&gt;16</title>
<path fill="none" stroke="black" stroke-dasharray="5,2" d="M218.46,-953.16C218.46,-992.61 218.46,-1046.54 218.46,-1078.66"/>
<polygon fill="black" stroke="black" points="218.46,-1088.67 213.97,-1078.67 218.47,-1083.67 218.47,-1078.67 218.47,-1078.67 218.47,-1078.67 218.47,-1083.67 222.97,-1078.67 218.46,-1088.67 218.46,-1088.67"/>
<text text-anchor="middle" x="265.46" y="-1019.8" font-family="Times,serif" font-size="14.00">&lt;&lt;create&gt;&gt;</text>
</g>
<!-- 9 -->
<g id="node10" class="node">
<title>9</title>
<polygon fill="none" stroke="black" points="684.46,-1049.5 684.46,-1164.5 840.46,-1164.5 840.46,-1049.5 684.46,-1049.5"/>
<text text-anchor="middle" x="762.46" y="-1149.3" font-family="Times,serif" font-size="14.00">PolygonRenderer</text>
<polyline fill="none" stroke="black" points="684.46,-1141.5 840.46,-1141.5 "/>
<polyline fill="none" stroke="black" points="684.46,-1117.5 840.46,-1117.5 "/>
<text text-anchor="start" x="692.46" y="-1102.3" font-family="Times,serif" font-size="14.00">coords_plot()</text>
<text text-anchor="start" x="692.46" y="-1087.3" font-family="Times,serif" font-size="14.00">embed_in_picture()</text>
<text text-anchor="start" x="692.46" y="-1072.3" font-family="Times,serif" font-size="14.00">segment()</text>
<text text-anchor="start" x="692.46" y="-1057.3" font-family="Times,serif" font-size="14.00">segment_as_array()</text>
</g>
<!-- 7&#45;&gt;9 -->
<g id="edge14" class="edge">
<title>7&#45;&gt;9</title>
<path fill="none" stroke="black" stroke-dasharray="5,2" d="M626,-962.43C649.69,-987.35 677.4,-1016.5 701.64,-1042.01"/>
<polygon fill="black" stroke="black" points="708.71,-1049.44 698.56,-1045.3 705.26,-1045.82 701.82,-1042.2 701.82,-1042.2 701.82,-1042.2 705.26,-1045.82 705.08,-1039.1 708.71,-1049.44 708.71,-1049.44"/>
<text text-anchor="middle" x="725.96" y="-1019.8" font-family="Times,serif" font-size="14.00">&lt;&lt;use&gt;&gt;</text>
</g>
<!-- 8&#45;&gt;7 -->
<g id="edge8" class="edge">
<title>8&#45;&gt;7</title>
<path fill="none" stroke="black" stroke-dasharray="5,2" d="M571.36,-534.02C571.21,-595.43 570.93,-712.45 570.72,-798.09"/>
<polygon fill="black" stroke="black" points="570.69,-808.11 566.22,-798.1 570.71,-803.11 570.72,-798.11 570.72,-798.11 570.72,-798.11 570.71,-803.11 575.22,-798.12 570.69,-808.11 570.69,-808.11"/>
<text text-anchor="middle" x="618.46" y="-658.3" font-family="Times,serif" font-size="14.00">&lt;&lt;create&gt;&gt;</text>
</g>
<!-- 9&#45;&gt;14 -->
<g id="edge17" class="edge">
<title>9&#45;&gt;14</title>
<path fill="none" stroke="black" stroke-dasharray="5,2" d="M684.41,-1158.91C681.06,-1160.99 677.74,-1163.02 674.46,-1165 660.5,-1173.44 656.02,-1173.92 642.46,-1183 633.53,-1188.99 633.3,-1193.64 623.46,-1198 581.86,-1216.44 531.79,-1225.36 490.75,-1229.66"/>
<polygon fill="black" stroke="black" points="480.8,-1230.63 490.31,-1225.18 485.77,-1230.14 490.75,-1229.66 490.75,-1229.66 490.75,-1229.66 485.77,-1230.14 491.19,-1234.14 480.8,-1230.63 480.8,-1230.63"/>
<text text-anchor="middle" x="689.46" y="-1186.8" font-family="Times,serif" font-size="14.00">&lt;&lt;create&gt;&gt;</text>
</g>
<!-- 9&#45;&gt;15 -->
<g id="edge18" class="edge">
<title>9&#45;&gt;15</title>
<path fill="none" stroke="black" stroke-dasharray="5,2" d="M756.86,-1164.51C753.54,-1176.54 748.39,-1188.48 740.46,-1198 736.3,-1203.01 731.28,-1207.33 725.82,-1211.07"/>
<polygon fill="black" stroke="black" points="716.93,-1216.47 723.14,-1207.43 721.2,-1213.87 725.48,-1211.28 725.48,-1211.28 725.48,-1211.28 721.2,-1213.87 727.81,-1215.12 716.93,-1216.47 716.93,-1216.47"/>
<text text-anchor="middle" x="797.46" y="-1186.8" font-family="Times,serif" font-size="14.00">&lt;&lt;create&gt;&gt;</text>
</g>
<!-- 10 -->
<g id="node11" class="node">
<title>10</title>
<polygon fill="none" stroke="black" points="207.96,-286.5 207.96,-415.5 542.96,-415.5 542.96,-286.5 207.96,-286.5"/>
<text text-anchor="middle" x="375.46" y="-400.3" font-family="Times,serif" font-size="14.00">Client</text>
<polyline fill="none" stroke="black" points="207.96,-392.5 542.96,-392.5 "/>
<text text-anchor="start" x="215.96" y="-377.3" font-family="Times,serif" font-size="14.00">config_dict</text>
<text text-anchor="start" x="215.96" y="-362.3" font-family="Times,serif" font-size="14.00">client_id</text>
<text text-anchor="start" x="215.96" y="-347.3" font-family="Times,serif" font-size="14.00">reporting_name</text>
<text text-anchor="start" x="215.96" y="-332.3" font-family="Times,serif" font-size="14.00">start_date</text>
<text text-anchor="start" x="215.96" y="-317.3" font-family="Times,serif" font-size="14.00">client_type</text>
<polyline fill="none" stroke="black" points="207.96,-309.5 542.96,-309.5 "/>
<text text-anchor="start" x="215.96" y="-294.3" font-family="Times,serif" font-size="14.00">get_day_weights_table(start_date, end_date)</text>
</g>
<!-- 10&#45;&gt;3 -->
<g id="edge11" class="edge">
<title>10&#45;&gt;3</title>
<path fill="none" stroke="black" d="M337.53,-415.7C335.09,-421.74 333,-427.89 331.46,-434 321.71,-472.8 320.32,-516.52 322.2,-555.16"/>
<polygon fill="none" stroke="black" points="322.2,-555.27 326.54,-561.03 322.9,-567.25 318.56,-561.49 322.2,-555.27"/>
<text text-anchor="middle" x="368.96" y="-487.8" font-family="Times,serif" font-size="14.00">ingredient</text>
<text text-anchor="middle" x="310.4" y="-556.05" font-family="Times,serif" font-size="14.00">0..*</text>
<text text-anchor="middle" x="332.53" y="-419.5" font-family="Times,serif" font-size="14.00">1</text>
</g>
<!-- 11&#45;&gt;10 -->
<g id="edge9" class="edge">
<title>11&#45;&gt;10</title>
<path fill="none" stroke="black" stroke-dasharray="5,2" d="M423.76,-178.9C416.24,-205.52 405.57,-243.35 396.16,-276.67"/>
<polygon fill="black" stroke="black" points="393.42,-286.39 391.8,-275.54 394.78,-281.57 396.14,-276.76 396.14,-276.76 396.14,-276.76 394.78,-281.57 400.47,-277.98 393.42,-286.39 393.42,-286.39"/>
<text text-anchor="middle" x="465.46" y="-228.8" font-family="Times,serif" font-size="14.00">&lt;&lt;create&gt;&gt;</text>
</g>
<!-- 12 -->
<g id="node13" class="node">
<title>12</title>
<polygon fill="none" stroke="black" points="930.46,-286.5 930.46,-415.5 1018.46,-415.5 1018.46,-286.5 930.46,-286.5"/>
<text text-anchor="middle" x="974.46" y="-400.3" font-family="Times,serif" font-size="14.00">Metadata</text>
<polyline fill="none" stroke="black" points="930.46,-392.5 1018.46,-392.5 "/>
<text text-anchor="start" x="938.46" y="-377.3" font-family="Times,serif" font-size="14.00">picture_id</text>
<text text-anchor="start" x="938.46" y="-362.3" font-family="Times,serif" font-size="14.00">type</text>
<text text-anchor="start" x="938.46" y="-347.3" font-family="Times,serif" font-size="14.00">field</text>
<text text-anchor="start" x="938.46" y="-332.3" font-family="Times,serif" font-size="14.00">value</text>
<text text-anchor="start" x="938.46" y="-317.3" font-family="Times,serif" font-size="14.00">time</text>
<polyline fill="none" stroke="black" points="930.46,-309.5 1018.46,-309.5 "/>
<text text-anchor="middle" x="974.46" y="-294.3" font-family="Times,serif" font-size="14.00"> </text>
</g>
<!-- 13&#45;&gt;12 -->
<g id="edge10" class="edge">
<title>13&#45;&gt;12</title>
<path fill="none" stroke="black" stroke-dasharray="5,2" d="M974.46,-178.9C974.46,-205.4 974.46,-243.02 974.46,-276.24"/>
<polygon fill="black" stroke="black" points="974.46,-286.39 969.97,-276.39 974.47,-281.39 974.47,-276.39 974.47,-276.39 974.47,-276.39 974.47,-281.39 978.97,-276.39 974.46,-286.39 974.46,-286.39"/>
<text text-anchor="middle" x="1021.46" y="-228.8" font-family="Times,serif" font-size="14.00">&lt;&lt;create&gt;&gt;</text>
</g>
</g>
</svg>
